<svg xmlns="http://www.w3.org/2000/svg" xmlns:xlink="http://www.w3.org/1999/xlink" width="32" zoomAndPan="magnify" viewBox="0 0 24 24" height="32" preserveAspectRatio="xMidYMid meet" version="1.0"><defs><clipPath id="d1e795c9ff"><path d="M 3 0 L 24 0 L 24 14 L 3 14 Z M 3 0 " clip-rule="nonzero"/></clipPath></defs><g clip-path="url(#d1e795c9ff)"><path fill="#a060ff" d="M 24.339844 5.171875 L 24.339844 9.253906 C 24.339844 11.316406 23.136719 13.09375 21.390625 13.925781 L 21.390625 10.175781 C 21.390625 6.855469 18.691406 4.152344 15.367188 4.152344 L 4.816406 4.152344 C 4.371094 4.152344 3.9375 4.199219 3.519531 4.292969 C 3.9375 1.855469 6.058594 0 8.617188 0 L 19.167969 0 C 22.023438 0 24.339844 2.316406 24.339844 5.171875 Z M 24.339844 5.171875 " fill-opacity="1" fill-rule="nonzero"/></g><path fill="#00e4e3" d="M 15.367188 5.003906 L 4.816406 5.003906 C 1.960938 5.003906 -0.355469 7.320312 -0.355469 10.175781 L -0.355469 14.257812 C -0.355469 17.117188 1.960938 19.433594 4.816406 19.433594 L 5.273438 19.433594 L 5.273438 24 L 5.929688 23.34375 C 8.429688 20.839844 11.828125 19.433594 15.367188 19.433594 C 18.222656 19.433594 20.539062 17.117188 20.539062 14.257812 L 20.539062 10.175781 C 20.539062 7.320312 18.226562 5.003906 15.367188 5.003906 Z M 15.367188 5.003906 " fill-opacity="1" fill-rule="nonzero"/></svg>