<svg  xmlns="http://www.w3.org/2000/svg" xmlns:xlink="http://www.w3.org/1999/xlink" width="500" zoomAndPan="magnify" viewBox="0 0 375 375" height="500" preserveAspectRatio="xMidYMid meet" version="1.0"><defs><g/><clipPath id="470c3d7083"><path d="M 37.5 134.515625 L 338 134.515625 L 338 245 L 37.5 245 Z M 37.5 134.515625 " clip-rule="nonzero"/></clipPath><clipPath id="f9c1347b05"><path d="M 54.75 134.515625 L 320.25 134.515625 C 324.824219 134.515625 329.210938 136.332031 332.449219 139.570312 C 335.683594 142.804688 337.5 147.191406 337.5 151.765625 L 337.5 227.433594 C 337.5 232.007812 335.683594 236.398438 332.449219 239.632812 C 329.210938 242.867188 324.824219 244.683594 320.25 244.683594 L 54.75 244.683594 C 50.175781 244.683594 45.789062 242.867188 42.550781 239.632812 C 39.316406 236.398438 37.5 232.007812 37.5 227.433594 L 37.5 151.765625 C 37.5 147.191406 39.316406 142.804688 42.550781 139.570312 C 45.789062 136.332031 50.175781 134.515625 54.75 134.515625 " clip-rule="nonzero"/></clipPath></defs><g clip-path="url(#470c3d7083)"><g clip-path="url(#f9c1347b05)"><path fill="#ffffff" d="M 37.5 134.515625 L 338.085938 134.515625 L 338.085938 245.257812 L 37.5 245.257812 Z M 37.5 134.515625 " fill-opacity="1" fill-rule="nonzero"/></g></g><g fill="#5ce1e6" fill-opacity="1"><g transform="translate(104.273435, 214.016352)"><g><path d="M 17.09375 0 L 4.9375 0 L 4.9375 -45.6875 L 31.9375 -45.6875 L 31.9375 -35.78125 L 17.09375 -35.78125 L 17.09375 -27.0625 L 30.78125 -27.0625 L 30.78125 -17.15625 L 17.09375 -17.15625 Z M 17.09375 0 "/></g></g></g><g fill="#5ce1e6" fill-opacity="1"><g transform="translate(138.771327, 214.016352)"><g><path d="M 4.9375 0 L 4.9375 -45.6875 L 17.28125 -45.6875 L 17.28125 -9.96875 L 34.875 -9.96875 L 34.875 0 Z M 4.9375 0 "/></g></g></g><g fill="#5ce1e6" fill-opacity="1"><g transform="translate(176.019051, 214.016352)"><g><path d="M 43.78125 -45.6875 L 43.78125 -18.1875 C 43.78125 -12.207031 42.085938 -7.578125 38.703125 -4.296875 C 35.316406 -1.015625 30.4375 0.625 24.0625 0.625 C 17.832031 0.625 13.046875 -0.96875 9.703125 -4.15625 C 6.359375 -7.34375 4.6875 -11.925781 4.6875 -17.90625 L 4.6875 -45.6875 L 17.09375 -45.6875 L 17.09375 -18.875 C 17.09375 -15.644531 17.695312 -13.300781 18.90625 -11.84375 C 20.113281 -10.382812 21.894531 -9.65625 24.25 -9.65625 C 26.769531 -9.65625 28.597656 -10.378906 29.734375 -11.828125 C 30.867188 -13.273438 31.4375 -15.644531 31.4375 -18.9375 L 31.4375 -45.6875 Z M 43.78125 -45.6875 "/></g></g></g><g fill="#5ce1e6" fill-opacity="1"><g transform="translate(224.453591, 214.016352)"><g><path d="M 46.09375 0 L 31.8125 0 L 22.90625 -14.28125 L 14.09375 0 L 0.125 0 L 15.28125 -23.375 L 1.03125 -45.6875 L 14.71875 -45.6875 L 22.96875 -31.5625 L 30.90625 -45.6875 L 45 -45.6875 L 30.53125 -22.40625 Z M 46.09375 0 "/></g></g></g><g fill="#5ce1e6" fill-opacity="1"><g transform="translate(85.57174, 212.766315)"><g><path d="M 24.5 12.65625 L 5.59375 12.65625 L 5.59375 -57.109375 L 24.5 -57.109375 L 24.5 -48.875 L 15.75 -48.875 L 15.75 4.421875 L 24.5 4.421875 Z M 24.5 12.65625 "/></g></g></g><g fill="#5ce1e6" fill-opacity="1"><g transform="translate(264.791647, 212.766315)"><g><path d="M 2 4.421875 L 10.703125 4.421875 L 10.703125 -48.875 L 2 -48.875 L 2 -57.109375 L 20.90625 -57.109375 L 20.90625 12.65625 L 2 12.65625 Z M 2 4.421875 "/></g></g></g></svg>