<svg width="88" height="29" viewBox="0 0 88 29" fill="none" xmlns="http://www.w3.org/2000/svg">
<g clip-path="url(#clip0_97_2)">
<path d="M13.2993 24.2812H7.74799V5.21884H20.078V9.35206H13.2993V12.9898H19.55V17.123H13.2993V24.2812Z" fill="#5CE1E6"/>
<path d="M23.502 24.2812V5.21884H29.139V20.1219H37.1735V24.2812H23.502Z" fill="#5CE1E6"/>
<path d="M58.2505 5.21884V16.6928C58.2505 19.188 57.4763 21.1194 55.9314 22.4884C54.3848 23.8574 52.1568 24.542 49.2456 24.542C46.4003 24.542 44.2151 23.877 42.6881 22.5471C41.1611 21.2171 40.3976 19.3054 40.3976 16.8101V5.21884H46.0632V16.4059C46.0632 17.7538 46.3379 18.7317 46.8909 19.3396C47.4421 19.9491 48.2555 20.2523 49.3312 20.2523C50.4818 20.2523 51.3166 19.9508 51.8357 19.3461C52.353 18.7431 52.6135 17.7538 52.6135 16.3798V5.21884H58.2505Z" fill="#5CE1E6"/>
<path d="M81.425 24.2812H74.9032L70.836 18.3226L66.8116 24.2812H60.4326L67.3539 14.5284L60.8464 5.21884H67.097L70.8645 11.1123L74.4893 5.21884H80.9255L74.3181 14.9326L81.425 24.2812Z" fill="#5CE1E6"/>
<path d="M8.14109 29.0403H-0.492767V-0.0682983H8.14109V3.36736H4.14525V25.6046H8.14109V29.0403Z" fill="#5CE1E6"/>
<path d="M79.7099 25.6046H83.6843V3.36736H79.7099V-0.0682983H88.3437V29.0403H79.7099V25.6046Z" fill="#5CE1E6"/>
</g>
<defs>
<clipPath id="clip0_97_2">
<rect width="88" height="29" fill="white"/>
</clipPath>
</defs>
</svg>
