<svg xmlns="http://www.w3.org/2000/svg" xmlns:xlink="http://www.w3.org/1999/xlink" width="300" zoomAndPan="magnify" viewBox="0 0 224.87999 74.999997" height="100" preserveAspectRatio="xMidYMid meet" version="1.0"><defs><g/><clipPath id="c3dea8deeb"><path d="M 9 5.015625 L 65.214844 5.015625 L 65.214844 43 L 9 43 Z M 9 5.015625 " clip-rule="nonzero"/></clipPath><clipPath id="3e66cb0c92"><path d="M 0 18 L 56 18 L 56 70.230469 L 0 70.230469 Z M 0 18 " clip-rule="nonzero"/></clipPath></defs><g clip-path="url(#c3dea8deeb)"><path fill="#a060ff" d="M 65.59375 19.070312 L 65.59375 30.164062 C 65.59375 35.761719 62.351562 40.597656 57.65625 42.855469 L 57.65625 32.671875 C 57.65625 23.644531 50.371094 16.296875 41.421875 16.296875 L 12.984375 16.296875 C 11.785156 16.296875 10.613281 16.429688 9.488281 16.679688 C 10.613281 10.058594 16.332031 5.015625 23.222656 5.015625 L 51.660156 5.015625 C 59.355469 5.015625 65.59375 11.308594 65.59375 19.070312 Z M 65.59375 19.070312 " fill-opacity="1" fill-rule="nonzero"/></g><g clip-path="url(#3e66cb0c92)"><path fill="#00e4e3" d="M 41.421875 18.617188 L 12.980469 18.617188 C 5.285156 18.617188 -0.953125 24.910156 -0.953125 32.671875 L -0.953125 43.761719 C -0.953125 51.527344 5.285156 57.820312 12.980469 57.820312 L 14.210938 57.820312 L 14.210938 70.230469 L 15.976562 68.449219 C 22.722656 61.644531 31.878906 57.820312 41.417969 57.820312 C 49.117188 57.820312 55.351562 51.523438 55.351562 43.761719 L 55.351562 32.671875 C 55.355469 24.910156 49.117188 18.617188 41.421875 18.617188 Z M 41.421875 18.617188 " fill-opacity="1" fill-rule="nonzero"/></g><g fill="#05001e" fill-opacity="1"><g transform="translate(71.37844, 45.747173)"><g><path d="M 2.441406 0 L 5.851562 0 L 5.851562 -7.917969 L 14.710938 -7.917969 L 14.710938 -11.046875 L 5.851562 -11.046875 L 5.851562 -15.839844 L 15.890625 -15.839844 L 15.890625 -18.964844 L 2.441406 -18.964844 Z M 2.441406 0 "/></g></g></g><g fill="#05001e" fill-opacity="1"><g transform="translate(87.954404, 45.747173)"><g><path d="M 2.441406 0 L 13.960938 0 L 13.960938 -3.222656 L 5.851562 -3.222656 L 5.851562 -18.964844 L 2.441406 -18.964844 Z M 2.441406 0 "/></g></g></g><g fill="#05001e" fill-opacity="1"><g transform="translate(102.221814, 45.747173)"><g><path d="M 9.261719 0.269531 C 14.347656 0.269531 16.523438 -2.75 16.523438 -7.53125 L 16.523438 -18.964844 L 13.113281 -18.964844 L 13.113281 -7.785156 C 13.113281 -4.726562 12.320312 -3.019531 9.261719 -3.019531 C 6.214844 -3.019531 5.410156 -4.726562 5.410156 -7.785156 L 5.410156 -18.964844 L 2.011719 -18.964844 L 2.011719 -7.394531 C 2.011719 -2.75 4.175781 0.269531 9.261719 0.269531 Z M 9.261719 0.269531 "/></g></g></g><g fill="#05001e" fill-opacity="1"><g transform="translate(120.743939, 45.747173)"><g><path d="M 0.335938 0 L 4.402344 0 L 8.992188 -7.207031 L 13.636719 0 L 17.703125 0 L 11.355469 -9.488281 L 17.675781 -18.964844 L 13.609375 -18.964844 L 9.019531 -11.652344 L 4.429688 -18.964844 L 0.363281 -18.964844 L 6.683594 -9.488281 Z M 0.335938 0 "/></g></g></g><g fill="#05001e" fill-opacity="1"><g transform="translate(138.769461, 45.747173)"><g/></g></g><g fill="#05001e" fill-opacity="1"><g transform="translate(145.373002, 45.747173)"><g><path d="M 10.28125 0.269531 C 14.054688 0.269531 17.074219 -1.652344 18.578125 -5.195312 L 15.421875 -6.484375 C 14.402344 -3.933594 12.722656 -2.964844 10.28125 -2.964844 C 6.214844 -2.964844 4.484375 -5.851562 4.484375 -9.625 C 4.484375 -13.140625 6.214844 -16.027344 10.226562 -16.027344 C 12.699219 -16.027344 14.65625 -15.058594 15.367188 -12.5625 L 18.550781 -13.824219 C 17.019531 -17.367188 14.011719 -19.273438 10.253906 -19.273438 C 4.011719 -19.273438 1.101562 -14.683594 1.101562 -9.488281 C 1.101562 -4.28125 4.039062 0.269531 10.28125 0.269531 Z M 10.28125 0.269531 "/></g></g></g><g fill="#05001e" fill-opacity="1"><g transform="translate(164.593063, 45.747173)"><g><path d="M 2.441406 0 L 5.851562 0 L 5.851562 -7.917969 L 14.160156 -7.917969 L 14.160156 0 L 17.570312 0 L 17.570312 -18.964844 L 14.160156 -18.964844 L 14.160156 -11.046875 L 5.851562 -11.046875 L 5.851562 -18.964844 L 2.441406 -18.964844 Z M 2.441406 0 "/></g></g></g><g fill="#05001e" fill-opacity="1"><g transform="translate(184.605015, 45.747173)"><g><path d="M 0.160156 0 L 3.878906 0 L 5.355469 -4.121094 L 12.722656 -4.121094 L 14.1875 0 L 17.863281 0 L 10.308594 -18.964844 L 7.757812 -18.964844 Z M 6.511719 -7.035156 L 9.046875 -13.960938 L 11.570312 -7.035156 Z M 6.511719 -7.035156 "/></g></g></g><g fill="#05001e" fill-opacity="1"><g transform="translate(202.630537, 45.747173)"><g><path d="M 6.214844 0 L 9.625 0 L 9.625 -15.917969 L 15.554688 -15.917969 L 15.554688 -18.964844 L 0.269531 -18.964844 L 0.269531 -15.917969 L 6.214844 -15.917969 Z M 6.214844 0 "/></g></g></g></svg>